<?xml version="1.0" encoding="UTF-8"?>
<svg version="1.1" xmlns="http://www.w3.org/2000/svg" width="50" height="50">
<path d="M0 0 C16.5 0 33 0 50 0 C50 16.5 50 33 50 50 C33.5 50 17 50 0 50 C0 33.5 0 17 0 0 Z " fill="#FDFDFC" transform="translate(0,0)"/>
<path d="M0 0 C1.134375 0.020625 2.26875 0.04125 3.4375 0.0625 C2.4475 0.7225 1.4575 1.3825 0.4375 2.0625 C-0.00818819 5.00368871 -0.00818819 5.00368871 0.06640625 8.4609375 C0.04900391 9.74484375 0.03160156 11.02875 0.01367188 12.3515625 C0.00360895 14.39458158 -0.00000006 16.43742594 0.00170898 18.48046875 C-0.0018683 20.45322417 -0.02993445 22.42588703 -0.05859375 24.3984375 C-0.06044678 25.57970215 -0.0622998 26.7609668 -0.06420898 27.97802734 C-0.6592511 31.66139926 -1.6913942 32.770868 -4.5625 35.0625 C-8.11495807 37.51247108 -11.33023043 37.43375172 -15.5625 37.0625 C-18.4375 35.875 -18.4375 35.875 -20.5625 34.0625 C-21.375 31.375 -21.375 31.375 -21.5625 29.0625 C-19.9125 29.0625 -18.2625 29.0625 -16.5625 29.0625 C-16.2325 30.7125 -15.9025 32.3625 -15.5625 34.0625 C-11.5524066 34.24114631 -11.5524066 34.24114631 -7.5625 34.0625 C-4.6997706 31.1997706 -5.26186403 29.12546142 -5.18359375 25.12109375 C-5.16659927 24.43821793 -5.1496048 23.7553421 -5.13209534 23.05177307 C-5.0789073 20.86794291 -5.0386381 18.68413233 -5 16.5 C-4.95611839 14.31239381 -4.90946173 12.12493751 -4.85719299 9.93751526 C-4.81057049 7.95514411 -4.77312395 5.97256358 -4.73608398 3.98999023 C-4.48269062 -0.28348346 -4.40279066 0.07724194 0 0 Z " fill="#A17E3F" transform="translate(31.5625,6.9375)"/>
<path d="M0 0 C1.65 0 3.3 0 5 0 C5.33 1.65 5.66 3.3 6 5 C8.31 5.66 10.62 6.32 13 7 C13 7.33 13 7.66 13 8 C8.08121703 8.28934017 4.84199691 8.27699736 1 5 C0.1875 2.3125 0.1875 2.3125 0 0 Z " fill="#B69C6D" transform="translate(10,36)"/>
</svg>
